<svg width="63" height="59" viewBox="0 0 63 59" fill="none" xmlns="http://www.w3.org/2000/svg">
<ellipse cx="31.5" cy="29.5" rx="31.5" ry="29.5" fill="#D9D9D9"/>
<path d="M28.9545 35.4545V35.3182C28.9697 33.8712 29.1212 32.7197 29.4091 31.8636C29.697 31.0076 30.1061 30.3144 30.6364 29.7841C31.1667 29.2538 31.803 28.7652 32.5455 28.3182C32.9924 28.0455 33.3939 27.7235 33.75 27.3523C34.1061 26.9735 34.3864 26.5379 34.5909 26.0455C34.803 25.553 34.9091 25.0076 34.9091 24.4091C34.9091 23.6667 34.7348 23.0227 34.3864 22.4773C34.0379 21.9318 33.572 21.5114 32.9886 21.2159C32.4053 20.9205 31.7576 20.7727 31.0455 20.7727C30.4242 20.7727 29.8258 20.9015 29.25 21.1591C28.6742 21.4167 28.1932 21.822 27.8068 22.375C27.4205 22.928 27.197 23.6515 27.1364 24.5455H24.2727C24.3333 23.2576 24.6667 22.1553 25.2727 21.2386C25.8864 20.322 26.6932 19.6212 27.6932 19.1364C28.7008 18.6515 29.8182 18.4091 31.0455 18.4091C32.3788 18.4091 33.5379 18.6742 34.5227 19.2045C35.5152 19.7348 36.2803 20.4621 36.8182 21.3864C37.3636 22.3106 37.6364 23.3636 37.6364 24.5455C37.6364 25.3788 37.5076 26.1326 37.25 26.8068C37 27.4811 36.6364 28.0833 36.1591 28.6136C35.6894 29.1439 35.1212 29.6136 34.4545 30.0227C33.7879 30.4394 33.2538 30.8788 32.8523 31.3409C32.4508 31.7955 32.1591 32.3371 31.9773 32.9659C31.7955 33.5947 31.697 34.3788 31.6818 35.3182V35.4545H28.9545ZM30.4091 42.1818C29.8485 42.1818 29.3674 41.9811 28.9659 41.5795C28.5644 41.178 28.3636 40.697 28.3636 40.1364C28.3636 39.5758 28.5644 39.0947 28.9659 38.6932C29.3674 38.2917 29.8485 38.0909 30.4091 38.0909C30.9697 38.0909 31.4508 38.2917 31.8523 38.6932C32.2538 39.0947 32.4545 39.5758 32.4545 40.1364C32.4545 40.5076 32.3598 40.8485 32.1705 41.1591C31.9886 41.4697 31.7424 41.7197 31.4318 41.9091C31.1288 42.0909 30.7879 42.1818 30.4091 42.1818Z" fill="#0A3871"/>
</svg>
